<svg viewBox="0 0 64 64" xmlns="http://www.w3.org/2000/svg">
    <defs>
          <linearGradient id="waGrad" x1="0" y1="0" x2="0" y2="1">
                  <stop offset="0%" stop-color="#57e389"/>
                  <stop offset="100%" stop-color="#1fa855"/>
          </linearGradient>
    </defs>
    <rect x="4" y="4" width="56" height="56" rx="14" fill="url(#waGrad)"/>
    <path d="M32 16c-9 0-16 7-16 16 0 3 .8 5.8 2.2 8.2L16 48l8.1-2.1c2.3 1.3 5 2 7.9 2 9 0 16-7 16-16s-7-16-16-16z" fill="#ffffff"/>
    <path d="M32 19.4c7.2 0 12.6 5.5 12.6 12.6 0 7.2-5.4 12.6-12.6 12.6-2.5 0-4.7-.6-6.6-1.8l-.7-.4-4.5 1.2 1.2-4.4-.4-.7c-1.3-2-2-4.3-2-6.5 0-7.1 5.4-12.6 13-12.6z" fill="#25D366"/>
    <path d="M27.6 25.4c-.4-.9-.8-.9-1.1-.9h-.9c-.3 0-.8.1-1.3.6-.4.5-1.7 1.6-1.7 4s1.7 4.6 2 4.9c.2.3 3.2 5 7.8 6.8 3.9 1.5 4.6 1.2 5.5 1.1.9-.1 2.7-1.1 3.1-2.2.4-1.1.4-2 .3-2.2-.1-.2-.4-.3-.9-.6-.4-.2-2.7-1.3-3.1-1.5-.4-.2-.7-.2-1 .2-.3.5-1.2 1.5-1.4 1.7-.3.3-.5.3-.9.1-.4-.2-1.8-.7-3.4-2.1-1.3-1.1-2.1-2.5-2.4-3-.3-.4 0-.6.2-.9.2-.2.4-.5.6-.7.2-.3.3-.5.4-.8.1-.3.1-.6 0-.8-.1-.2-.9-2.3-1.3-3.2z" fill="#ffffff"/>
</svg>
